<?xml version="1.0" encoding="UTF-8" standalone="no"?>
<svg xmlns="http://www.w3.org/2000/svg" xmlns:xlink="http://www.w3.org/1999/xlink" width="500" zoomAndPan="magnify" viewBox="0 0 375 374.999991" height="500" preserveAspectRatio="xMidYMid meet" version="1.0"><defs><g/><clipPath id="6f02d8bfc3"><path d="M 134.035156 79.605469 L 241.285156 79.605469 L 241.285156 226.605469 L 134.035156 226.605469 Z M 134.035156 79.605469 " clip-rule="nonzero"/></clipPath></defs><rect x="-37.5" width="450" fill="#ffffff" y="-37.499999" height="449.999989" fill-opacity="1"/><rect x="-37.5" width="450" fill="#ffffff" y="-37.499999" height="449.999989" fill-opacity="1"/><rect x="-37.5" width="450" fill="#010f20" y="-37.499999" height="449.999989" fill-opacity="1"/><g clip-path="url(#6f02d8bfc3)"><path fill="#ff6600" d="M 134.035156 79.65625 L 241.285156 79.65625 L 241.285156 112.867188 L 167.402344 112.867188 L 167.402344 133.761719 L 227.992188 133.761719 L 227.992188 166.972656 L 167.402344 166.972656 L 167.402344 193.34375 L 241.285156 193.34375 L 241.285156 226.554688 L 134.035156 226.554688 L 134.035156 187.441406 L 167.402344 166.972656 L 167.402344 133.761719 L 134.035156 154.445312 Z M 134.035156 79.65625 " fill-opacity="1" fill-rule="evenodd"/></g><g fill="#ffffff" fill-opacity="1"><g transform="translate(189.357114, 269.144222)"><g/></g></g></svg>